{"asset":{"version":"2.0","generator":"Blockbench 4.6.5 glTF exporter"},"scenes":[{"nodes":[9],"name":"blockbench_export"}],"scene":0,"nodes":[{"rotation":[-0.5416752147811368,0.541675212408648,0.4545194843918236,0.454519487219246],"translation":[0.125,0.2749999999999999,0.0625],"name":"cube","mesh":0},{"rotation":[0,0.7071067811865475,0,0.7071067811865476],"name":"cube","mesh":1},{"rotation":[0,0,0.7071067811865475,0.7071067811865476],"translation":[0.12500000000000006,0.25,-0.20625000000000007],"name":"cylinder","mesh":2},{"translation":[-0.12500000000000006,-0.2500000000000001,0.11875000000000006],"name":"bone2","children":[1,2]},{"rotation":[0,-0.08715574274765817,0,0.9961946980917455],"translation":[0,-0.2500000000000001,-0.07500000000000001],"name":"cube","mesh":3},{"translation":[-0.08124999999999999,-0.2500000000000001,-0.05000000000000001],"name":"cube","mesh":4},{"rotation":[0,0.7071067811865475,0,0.7071067811865476],"translation":[-0.11250000000000002,-0.2500000000000001,-0.02500000000000001],"name":"cube","mesh":5},{"rotation":[0,0.7071067811865475,0,0.7071067811865476],"translation":[-0.12500000000000006,-0.2500000000000001,0.05],"name":"cube","mesh":6},{"rotation":[-0.5,-0.5,-0.4999999999999999,0.5000000000000001],"translation":[0,0.2500000000000001,0.08750000000000001],"name":"bone","children":[3,4,5,6,7]},{"children":[0,8]}],"bufferViews":[{"buffer":0,"byteOffset":0,"byteLength":288,"target":34962,"byteStride":12},{"buffer":0,"byteOffset":288,"byteLength":288,"target":34962,"byteStride":12},{"buffer":0,"byteOffset":576,"byteLength":192,"target":34962,"byteStride":8},{"buffer":0,"byteOffset":768,"byteLength":72,"target":34963},{"buffer":0,"byteOffset":840,"byteLength":288,"target":34962,"byteStride":12},{"buffer":0,"byteOffset":1128,"byteLength":288,"target":34962,"byteStride":12},{"buffer":0,"byteOffset":1416,"byteLength":192,"target":34962,"byteStride":8},{"buffer":0,"byteOffset":1608,"byteLength":72,"target":34963},{"buffer":0,"byteOffset":1680,"byteLength":1728,"target":34962,"byteStride":12},{"buffer":0,"byteOffset":3408,"byteLength":1728,"target":34962,"byteStride":12},{"buffer":0,"byteOffset":5136,"byteLength":1152,"target":34962,"byteStride":8},{"buffer":0,"byteOffset":6288,"byteLength":384,"target":34963},{"buffer":0,"byteOffset":6672,"byteLength":672,"target":34962,"byteStride":12},{"buffer":0,"byteOffset":7344,"byteLength":672,"target":34962,"byteStride":12},{"buffer":0,"byteOffset":8016,"byteLength":448,"target":34962,"byteStride":8},{"buffer":0,"byteOffset":8464,"byteLength":168,"target":34963},{"buffer":0,"byteOffset":8632,"byteLength":288,"target":34962,"byteStride":12},{"buffer":0,"byteOffset":8920,"byteLength":288,"target":34962,"byteStride":12},{"buffer":0,"byteOffset":9208,"byteLength":192,"target":34962,"byteStride":8},{"buffer":0,"byteOffset":9400,"byteLength":72,"target":34963},{"buffer":0,"byteOffset":9472,"byteLength":288,"target":34962,"byteStride":12},{"buffer":0,"byteOffset":9760,"byteLength":288,"target":34962,"byteStride":12},{"buffer":0,"byteOffset":10048,"byteLength":192,"target":34962,"byteStride":8},{"buffer":0,"byteOffset":10240,"byteLength":72,"target":34963},{"buffer":0,"byteOffset":10312,"byteLength":288,"target":34962,"byteStride":12},{"buffer":0,"byteOffset":10600,"byteLength":288,"target":34962,"byteStride":12},{"buffer":0,"byteOffset":10888,"byteLength":192,"target":34962,"byteStride":8},{"buffer":0,"byteOffset":11080,"byteLength":72,"target":34963}],"buffers":[{"byteLength":11152,"uri":"data:application/octet-stream;base64,"}],"accessors":[{"bufferView":0,"componentType":5126,"count":24,"max":[0.030259650200605392,0.13750000298023224,-0.03631974756717682],"min":[-0.04474034905433655,0.11249999701976776,-0.19881974160671234],"type":"VEC3"},{"bufferView":1,"componentType":5126,"count":24,"max":[1,1,1],"min":[-1,-1,-1],"type":"VEC3"},{"bufferView":2,"componentType":5126,"count":24,"max":[0.5,1],"min":[0,0.375],"type":"VEC2"},{"bufferView":3,"componentType":5123,"count":36,"max":[23],"min":[0],"type":"SCALAR"},{"bufferView":4,"componentType":5126,"count":24,"max":[0.07500000298023224,0.28125,0.17499999701976776],"min":[0.02500000037252903,0.21875,-0.17499999701976776],"type":"VEC3"},{"bufferView":5,"componentType":5126,"count":24,"max":[1,1,1],"min":[-1,-1,-1],"type":"VEC3"},{"bufferView":6,"componentType":5126,"count":24,"max":[0.8125,1],"min":[0.125,0.1875],"type":"VEC2"},{"bufferView":7,"componentType":5123,"count":36,"max":[23],"min":[0],"type":"SCALAR"},{"bufferView":8,"componentType":5126,"count":144,"max":[0.01875000074505806,0.3187499940395355,0.17499999701976776],"min":[-0.01875000074505806,0.06875000149011612,0.13750000298023224],"type":"VEC3"},{"bufferView":9,"componentType":5126,"count":144,"max":[1,1,1],"min":[-1,-1,-1],"type":"VEC3"},{"bufferView":10,"componentType":5126,"count":144,"max":[0.831250011920929,0.9530375003814697],"min":[0,0.125],"type":"VEC2"},{"bufferView":11,"componentType":5123,"count":192,"max":[143],"min":[0],"type":"SCALAR"},{"bufferView":12,"componentType":5126,"count":56,"max":[0.05000000074505806,0.28125,0.09375],"min":[-0.05000000074505806,0.21875,-0.09375],"type":"VEC3"},{"bufferView":13,"componentType":5126,"count":56,"max":[1,1,1],"min":[-1,-1,-1],"type":"VEC3"},{"bufferView":14,"componentType":5126,"count":56,"max":[0.75,1],"min":[0,0.25],"type":"VEC2"},{"bufferView":15,"componentType":5123,"count":84,"max":[55],"min":[0],"type":"SCALAR"},{"bufferView":16,"componentType":5126,"count":24,"max":[0.03125,0.2562499940395355,0.0062500000931322575],"min":[-0.03125,0.24375000596046448,-0.0062500000931322575],"type":"VEC3"},{"bufferView":17,"componentType":5126,"count":24,"max":[1,1,1],"min":[-1,-1,-1],"type":"VEC3"},{"bufferView":18,"componentType":5126,"count":24,"max":[0.75,0.625],"min":[0.6875,0.25],"type":"VEC2"},{"bufferView":19,"componentType":5123,"count":36,"max":[23],"min":[0],"type":"SCALAR"},{"bufferView":20,"componentType":5126,"count":24,"max":[0.03125,0.2562499940395355,0.0062500000931322575],"min":[-0.03125,0.24375000596046448,-0.0062500000931322575],"type":"VEC3"},{"bufferView":21,"componentType":5126,"count":24,"max":[1,1,1],"min":[-1,-1,-1],"type":"VEC3"},{"bufferView":22,"componentType":5126,"count":24,"max":[0.8125,1],"min":[0.0625,0.1875],"type":"VEC2"},{"bufferView":23,"componentType":5123,"count":36,"max":[23],"min":[0],"type":"SCALAR"},{"bufferView":24,"componentType":5126,"count":24,"max":[0.04374999925494194,0.28125,0.17499999701976776],"min":[0.0062500000931322575,0.21875,-0.17499999701976776],"type":"VEC3"},{"bufferView":25,"componentType":5126,"count":24,"max":[1,1,1],"min":[-1,-1,-1],"type":"VEC3"},{"bufferView":26,"componentType":5126,"count":24,"max":[0.8125,0.8125],"min":[0,0.1875],"type":"VEC2"},{"bufferView":27,"componentType":5123,"count":36,"max":[23],"min":[0],"type":"SCALAR"}],"materials":[{"pbrMetallicRoughness":{"metallicFactor":0,"roughnessFactor":1,"baseColorTexture":{"index":0}},"alphaMode":"MASK","alphaCutoff":0.05,"doubleSided":true},{"pbrMetallicRoughness":{"metallicFactor":0,"roughnessFactor":1,"baseColorTexture":{"index":1}},"alphaMode":"MASK","alphaCutoff":0.05,"doubleSided":true}],"textures":[{"sampler":0,"source":0,"name":"texture_peint_gun.png"},{"sampler":1,"source":1,"name":"texture_gun.png"}],"samplers":[{"magFilter":9728,"minFilter":9728,"wrapS":33071,"wrapT":33071},{"magFilter":9728,"minFilter":9728,"wrapS":33071,"wrapT":33071}],"images":[{"mimeType":"image/png","uri":"data:image/png;base64,"},{"mimeType":"image/png","uri":"data:image/png;base64,"}],"meshes":[{"primitives":[{"mode":4,"attributes":{"POSITION":0,"NORMAL":1,"TEXCOORD_0":2},"indices":3,"material":0}]},{"primitives":[{"mode":4,"attributes":{"POSITION":4,"NORMAL":5,"TEXCOORD_0":6},"indices":7,"material":1}]},{"primitives":[{"mode":4,"attributes":{"POSITION":8,"NORMAL":9,"TEXCOORD_0":10},"indices":11,"material":1}]},{"primitives":[{"mode":4,"attributes":{"POSITION":12,"NORMAL":13,"TEXCOORD_0":14},"indices":15,"material":1}]},{"primitives":[{"mode":4,"attributes":{"POSITION":16,"NORMAL":17,"TEXCOORD_0":18},"indices":19,"material":1}]},{"primitives":[{"mode":4,"attributes":{"POSITION":20,"NORMAL":21,"TEXCOORD_0":22},"indices":23,"material":1}]},{"primitives":[{"mode":4,"attributes":{"POSITION":24,"NORMAL":25,"TEXCOORD_0":26},"indices":27,"material":1}]}]}