{"asset":{"version":"2.0","generator":"Blockbench 4.9.3 glTF exporter"},"scenes":[{"nodes":[2],"name":"blockbench_export"}],"scene":0,"nodes":[{"name":"AK47_Mesh"},{"rotation":[-0.7071067811865475,0,0,0.7071067811865476],"name":"AK47_Mesh_0","mesh":0},{"children":[0,1]}],"bufferViews":[{"buffer":0,"byteOffset":0,"byteLength":20016,"target":34962,"byteStride":12},{"buffer":0,"byteOffset":20016,"byteLength":20016,"target":34962,"byteStride":12},{"buffer":0,"byteOffset":40032,"byteLength":13344,"target":34962,"byteStride":8},{"buffer":0,"byteOffset":53376,"byteLength":3336,"target":34963}],"buffers":[{"byteLength":56712,"uri":"data:application/octet-stream;base64,"}],"accessors":[{"bufferView":0,"componentType":5126,"count":1668,"max":[0.06489350646734238,0.49292850494384766,0.41365858912467957],"min":[-0.06267617642879486,-0.8394874930381775,-0.005490600131452084],"type":"VEC3"},{"bufferView":1,"componentType":5126,"count":1668,"max":[1,1,1],"min":[-1,-1,-1],"type":"VEC3"},{"bufferView":2,"componentType":5126,"count":1668,"max":[1,0.984375],"min":[0,0.015625],"type":"VEC2"},{"bufferView":3,"componentType":5123,"count":1668,"max":[1667],"min":[0],"type":"SCALAR"}],"materials":[{"pbrMetallicRoughness":{"metallicFactor":0,"roughnessFactor":1,"baseColorTexture":{"index":0}},"alphaMode":"MASK","alphaCutoff":0.05,"doubleSided":true}],"textures":[{"sampler":0,"source":0}],"samplers":[{"magFilter":9728,"minFilter":9728,"wrapS":33071,"wrapT":33071}],"images":[{"mimeType":"image/png","uri":"data:image/png;base64,"}],"meshes":[{"primitives":[{"mode":4,"attributes":{"POSITION":0,"NORMAL":1,"TEXCOORD_0":2},"indices":3,"material":0}]}]}